<svg width="187" height="187" viewBox="0 0 187 187" fill="none" xmlns="http://www.w3.org/2000/svg">
<path d="M155.499 46.75H116.236C116.662 44.9847 116.875 43.0368 116.875 40.9062C116.875 38.7757 116.662 36.8278 116.236 35.0625H167.277L155.499 46.75ZM163.625 140.25V101.718L175.312 89.939V151.938H0V35.0625H59.0767C58.6506 36.8278 58.4375 38.7757 58.4375 40.9062C58.4375 43.0368 58.6506 44.9847 59.0767 46.75H11.6875V140.25H163.625ZM87.6562 58.4375C85.2214 58.4375 82.9386 57.981 80.8081 57.0679C78.6776 56.1548 76.821 54.9069 75.2383 53.3242C73.6556 51.7415 72.4077 49.8849 71.4946 47.7544C70.5815 45.6239 70.125 43.3411 70.125 40.9062C70.125 38.4714 70.5815 36.1886 71.4946 34.0581C72.4077 31.9276 73.6556 30.071 75.2383 28.4883C76.821 26.9056 78.6776 25.6577 80.8081 24.7446C82.9386 23.8315 85.2214 23.375 87.6562 23.375C90.0911 23.375 92.3739 23.8315 94.5044 24.7446C96.6349 25.6577 98.4915 26.9056 100.074 28.4883C101.657 30.071 102.905 31.9276 103.818 34.0581C104.731 36.1886 105.188 38.4714 105.188 40.9062C105.188 43.3411 104.731 45.6239 103.818 47.7544C102.905 49.8849 101.657 51.7415 100.074 53.3242C98.4915 54.9069 96.6349 56.1548 94.5044 57.0679C92.3739 57.981 90.0911 58.4375 87.6562 58.4375ZM117.423 116.784L126.188 96.6045L175.404 47.5718L186.27 58.4375C179.756 64.9508 174.186 70.5511 169.56 75.2383C164.934 79.9255 160.977 83.9126 157.69 87.1997C154.403 90.4868 151.724 93.2261 149.655 95.4175C147.585 97.6089 145.789 99.4351 144.268 100.896C142.746 102.357 141.467 103.574 140.433 104.548C139.398 105.522 138.302 106.527 137.146 107.562L135.776 108.201C134.863 108.627 133.706 109.175 132.306 109.844C130.906 110.514 129.384 111.214 127.741 111.944C126.097 112.675 124.575 113.405 123.175 114.136C121.775 114.866 120.527 115.444 119.432 115.871C118.336 116.297 117.666 116.601 117.423 116.784Z" fill="#5D5BD4"/>
</svg>
