<svg width="187" height="187" viewBox="0 0 187 187" fill="none" xmlns="http://www.w3.org/2000/svg">
<g clip-path="url(#clip0_8882_221740)">
<path d="M54.9852 18.8436L64.0781 16.1028C74.3827 12.9968 85.3919 18.0164 89.8051 27.8326L96.8308 43.4605C100.592 51.8274 98.6097 61.6605 91.9011 67.9169L80.258 78.7745C79.9175 79.0916 79.7016 79.5201 79.6502 79.983C79.3043 83.077 81.4026 89.1031 86.235 97.4737C89.7498 103.561 92.9303 107.83 95.6379 110.231C97.5243 111.904 98.5629 112.265 99.0047 112.134L114.669 107.345C123.439 104.664 132.944 107.861 138.31 115.298L148.289 129.128C154.569 137.833 153.44 149.842 145.646 157.223L138.74 163.764C131.288 170.821 120.679 173.451 110.794 170.692C89.3345 164.703 70.0944 146.593 52.8602 116.743C35.6021 86.8513 29.5465 61.1039 35.1288 39.507C37.6835 29.6235 45.2112 21.7898 54.9852 18.8436ZM58.3582 30.0338C52.4938 31.8015 47.9772 36.5017 46.4444 42.4319C41.7488 60.5982 47.1161 83.4191 62.9819 110.9C78.8266 138.343 95.8818 154.396 113.935 159.435C119.867 161.09 126.232 159.512 130.704 155.278L137.609 148.737C141.152 145.382 141.666 139.923 138.811 135.967L128.832 122.137C126.392 118.757 122.072 117.303 118.086 118.522L102.383 123.323C93.2693 126.04 84.9969 118.704 76.1136 103.317C70.1272 92.9491 67.337 84.9338 68.0349 78.6856C68.3965 75.4484 69.9047 72.4478 72.2868 70.2265L83.9302 59.3692C86.9798 56.5254 87.8806 52.0558 86.1711 48.2526L79.1453 32.6247C77.1394 28.1628 72.135 25.8811 67.4511 27.293L58.3582 30.0338Z" fill="#5D5BD4"/>
</g>
<defs>
<clipPath id="clip0_8882_221740">
<rect width="187" height="187" fill="white"/>
</clipPath>
</defs>
</svg>
