<svg width="187" height="187" viewBox="0 0 187 187" fill="none" xmlns="http://www.w3.org/2000/svg">
<g clip-path="url(#clip0_8882_221745)">
<path d="M93.4999 15.5834C136.532 15.5834 171.417 50.4678 171.417 93.5C171.417 136.532 136.532 171.417 93.4999 171.417C80.8907 171.417 68.7054 168.414 57.7584 162.752L27.9489 171.068C22.7681 172.515 17.3954 169.488 15.9488 164.308C15.47 162.593 15.4702 160.78 15.9491 159.068L24.2679 129.281C18.5937 118.324 15.5833 106.125 15.5833 93.5C15.5833 50.4678 50.4677 15.5834 93.4999 15.5834ZM93.4999 27.2709C56.9226 27.2709 27.2708 56.9227 27.2708 93.5C27.2708 104.951 30.1753 115.967 35.6314 125.738L36.8053 127.839L28.1353 158.883L59.1975 150.217L61.2977 151.388C71.0604 156.831 82.0633 159.729 93.4999 159.729C130.077 159.729 159.729 130.077 159.729 93.5C159.729 56.9227 130.077 27.2709 93.4999 27.2709ZM68.177 101.292H103.226C106.454 101.292 109.07 103.908 109.07 107.135C109.07 110.094 106.871 112.539 104.019 112.926L103.226 112.979H68.177C64.9496 112.979 62.3333 110.363 62.3333 107.135C62.3333 104.177 64.5317 101.732 67.384 101.345L68.177 101.292ZM68.177 74.0209H118.858C122.085 74.0209 124.702 76.6372 124.702 79.8646C124.702 82.8231 122.503 85.2681 119.651 85.6554L118.858 85.7084H68.177C64.9496 85.7084 62.3333 83.0919 62.3333 79.8646C62.3333 76.9061 64.5317 74.4612 67.384 74.0742L68.177 74.0209Z" fill="#5D5BD4"/>
</g>
<defs>
<clipPath id="clip0_8882_221745">
<rect width="187" height="187" fill="white"/>
</clipPath>
</defs>
</svg>
