<svg width="187" height="187" viewBox="0 0 187 187" fill="none" xmlns="http://www.w3.org/2000/svg">
<g clip-path="url(#clip0_8882_221737)">
<path d="M58.8547 27.6875C52.3994 27.6875 47.1667 32.9204 47.1667 39.375C47.1667 45.8296 52.3994 51.0625 58.8547 51.0625C65.31 51.0625 70.5428 45.8296 70.5428 39.375C70.5428 32.9204 65.31 27.6875 58.8547 27.6875ZM35.4792 39.375C35.4792 26.4651 45.9449 16 58.8547 16C71.7645 16 82.2299 26.4651 82.2299 39.375C82.2299 52.2849 71.7645 62.75 58.8547 62.75C45.9449 62.75 35.4792 52.2849 35.4792 39.375ZM29.7744 70.5417C22.167 70.5417 16 76.7087 16 84.3158V87.1161C15.9999 88.7391 15.9995 98.093 21.4609 107.184C25.7214 114.275 32.959 120.643 44.6365 123.497C46.2402 119.219 49.1642 115.586 52.9124 113.094C40.4156 111.756 34.5103 106.209 31.4793 101.164C27.7078 94.8867 27.6875 88.2046 27.6875 87.099V84.3158C27.6875 83.1634 28.6219 82.2292 29.7744 82.2292H62.9911C63.5168 78.0141 64.8841 74.0604 66.9196 70.5417H29.7744ZM120.915 70.5417C122.951 74.0604 124.317 78.0141 124.843 82.2292H158.059C159.212 82.2292 160.146 83.1634 160.146 84.3158V87.099C160.146 88.2046 160.126 94.8867 156.354 101.164C153.323 106.209 147.417 111.756 134.921 113.094C138.669 115.586 141.593 119.219 143.197 123.497C154.874 120.643 162.112 114.275 166.372 107.184C171.834 98.093 171.833 88.7391 171.833 87.1161V84.3158C171.833 76.7087 165.666 70.5417 158.059 70.5417H120.915ZM117.292 39.375C117.292 32.9204 122.525 27.6875 128.98 27.6875C135.435 27.6875 140.667 32.9204 140.667 39.375C140.667 45.8296 135.435 51.0625 128.98 51.0625C122.525 51.0625 117.292 45.8296 117.292 39.375ZM128.98 16C116.07 16 105.604 26.4651 105.604 39.375C105.604 52.2849 116.07 62.75 128.98 62.75C141.889 62.75 152.355 52.2849 152.355 39.375C152.355 26.4651 141.889 16 128.98 16ZM93.9174 74.4375C87.4621 74.4375 82.2292 79.6704 82.2292 86.125C82.2292 92.5796 87.4621 97.8125 93.9174 97.8125C100.373 97.8125 105.605 92.5796 105.605 86.125C105.605 79.6704 100.373 74.4375 93.9174 74.4375ZM70.5417 86.125C70.5417 73.2151 81.0074 62.75 93.9174 62.75C106.827 62.75 117.292 73.2151 117.292 86.125C117.292 99.035 106.827 109.5 93.9174 109.5C81.0074 109.5 70.5417 99.035 70.5417 86.125ZM51.0625 131.066C51.0625 123.459 57.2295 117.292 64.8369 117.292H122.997C130.604 117.292 136.771 123.459 136.771 131.066V133.866C136.771 135.489 136.772 144.843 131.31 153.934C125.534 163.548 114.284 171.833 93.9167 171.833C73.549 171.833 62.3 163.548 56.5233 153.934C51.062 144.843 51.0624 135.489 51.0625 133.866V131.066ZM64.8369 128.979C63.6844 128.979 62.75 129.913 62.75 131.066V133.849C62.75 134.955 62.7703 141.637 66.5418 147.914C70.0178 153.7 77.2739 160.146 93.9167 160.146C110.56 160.146 117.815 153.7 121.292 147.914C125.063 141.637 125.083 134.955 125.083 133.849V131.066C125.083 129.913 124.149 128.979 122.997 128.979H64.8369Z" fill="#5D5BD4"/>
</g>
<defs>
<clipPath id="clip0_8882_221737">
<rect width="187" height="187" fill="white"/>
</clipPath>
</defs>
</svg>
